<svg t="1641480610945" class="icon" viewBox="0 0 1024 1024" version="1.1" xmlns="http://www.w3.org/2000/svg" p-id="8491"
  width="200" height="200">
  <path
    d="M809.826 623.726c-15.508 0-30.662-7.788-39.426-21.942-24.99-40.356-73.026-74.1-96.108-90.318-20.932-14.706-25.982-43.6-11.276-64.532 14.704-20.932 43.598-25.984 64.532-11.276 28.124 19.756 86.644 60.868 121.618 117.352 13.468 21.752 6.754 50.302-14.996 63.77a46.124 46.124 0 0 1-24.344 6.946z"
    fill="#F3C74F" p-id="8492"></path>
  <path d="M693.328 157.506m-106.388 0a106.388 106.388 0 1 0 212.776 0 106.388 106.388 0 1 0-212.776 0Z" fill="#0081C6"
    p-id="8493"></path>
  <path d="M693.328 157.506m-49.672 0a49.672 49.672 0 1 0 99.344 0 49.672 49.672 0 1 0-99.344 0Z" fill="#F3C74F"
    p-id="8494"></path>
  <path d="M180.126 157.506m-106.388 0a106.388 106.388 0 1 0 212.776 0 106.388 106.388 0 1 0-212.776 0Z" fill="#0081C6"
    p-id="8495"></path>
  <path d="M180.126 157.506m-49.672 0a49.672 49.672 0 1 0 99.344 0 49.672 49.672 0 1 0-99.344 0Z" fill="#F3C74F"
    p-id="8496"></path>
  <path
    d="M243.024 71.71c-50.02 45.208-92.446 107.442-122.584 173.868a105.896 105.896 0 0 0 59.692 18.316c58.756 0 106.388-47.632 106.388-106.388 0-35.222-17.128-66.432-43.496-85.796z"
    opacity=".2" p-id="8497"></path>
  <path
    d="M771.012 449.248C771.012 265.178 617.556 0 436.732 0S102.452 265.178 102.452 449.248s149.664 333.292 334.28 333.292 334.28-149.218 334.28-333.292z"
    fill="#40BAB3" p-id="8498"></path>
  <path d="M108.082 510.376c28.796 154.874 164.976 272.166 328.652 272.166s299.854-117.292 328.652-272.166H108.082z"
    fill="#FFFFFF" p-id="8499"></path>
  <path d="M167.258 646.458c60.84 82.52 158.876 136.084 269.474 136.084s208.634-53.564 269.474-136.084H167.258z"
    fill="#0081C6" p-id="8500"></path>
  <path
    d="M472.18 747.094c-184.618 0-334.282-149.22-334.282-333.292 0-110.816 55.632-251.006 139.358-345.054-103.11 91.02-174.804 254.692-174.804 380.5 0 184.074 149.664 333.292 334.282 333.292 101.506 0 192.432-45.116 253.74-116.324-58.572 50.396-134.862 80.878-218.294 80.878z"
    opacity=".2" p-id="8501"></path>
  <path
    d="M288.472 327.634a16.66 16.66 0 0 1-15.654-22.364l3.128-8.598c3.146-8.65 12.706-13.116 21.356-9.96a16.66 16.66 0 0 1 9.96 21.356l-3.128 8.598a16.68 16.68 0 0 1-15.662 10.968zM678.454 327.634a16.66 16.66 0 0 1-15.656-22.364l3.128-8.598c3.146-8.65 12.706-13.116 21.356-9.96a16.66 16.66 0 0 1 9.96 21.356l-3.128 8.598a16.668 16.668 0 0 1-15.66 10.968zM517.772 374.914a49.206 49.206 0 0 1-32.744-12.438 49.208 49.208 0 0 1-32.742 12.438c-27.244 0-49.408-22.166-49.408-49.408a16.66 16.66 0 0 1 16.664-16.664 16.66 16.66 0 0 1 16.664 16.664c0 8.866 7.214 16.08 16.08 16.08 8.866 0 16.078-7.214 16.078-16.08a16.66 16.66 0 0 1 16.664-16.664 16.664 16.664 0 0 1 16.664 16.664c0 8.866 7.214 16.08 16.08 16.08 8.866 0 16.08-7.214 16.08-16.08a16.66 16.66 0 0 1 16.664-16.664 16.66 16.66 0 0 1 16.664 16.664c0 27.244-22.164 49.408-49.408 49.408z"
    fill="#394049" p-id="8502"></path>
  <path
    d="M964.714 1024H59.286c-30.16 0-54.606-24.45-54.606-54.606v-283.08c0-30.16 24.45-54.608 54.606-54.608h905.428c30.16 0 54.606 24.45 54.606 54.608v283.078c0 30.162-24.446 54.608-54.606 54.608z"
    fill="#A27B5A" p-id="8503"></path>
  <path
    d="M964.714 631.706h-96.164c-15.568 22.298-24.73 49.402-24.73 78.66 0 75.994 61.606 137.596 137.596 137.596 13.154 0 25.858-1.884 37.902-5.33v-156.32c0.002-30.156-24.444-54.606-54.604-54.606z"
    fill="#FFFFFF" opacity=".1" p-id="8504"></path>
  <path
    d="M771.968 883.808l-342.89 91.878a11.824 11.824 0 0 1-14.478-8.358l-52.54-196.084a11.824 11.824 0 0 1 8.358-14.478l342.89-91.878a11.824 11.824 0 0 1 14.478 8.358l52.54 196.084a11.82 11.82 0 0 1-8.358 14.478z"
    fill="#FFFFFF" p-id="8505"></path>
  <path
    d="M429.076 975.686l171.444-45.938-58.658-218.92-171.444 45.938a11.82 11.82 0 0 0-8.358 14.478l52.54 196.084a11.818 11.818 0 0 0 14.476 8.358z"
    opacity=".1" p-id="8506"></path>
  <path
    d="M454.958 932.708a16.67 16.67 0 0 1-16.084-12.356 16.66 16.66 0 0 1 11.782-20.408l81.886-21.94c8.894-2.39 18.028 2.892 20.41 11.782a16.664 16.664 0 0 1-11.782 20.41l-81.886 21.94a16.66 16.66 0 0 1-4.326 0.572zM438.808 872.426a16.67 16.67 0 0 1-4.302-32.766l81.884-21.94c8.892-2.39 18.028 2.892 20.41 11.782a16.66 16.66 0 0 1-11.782 20.408l-81.886 21.94a16.494 16.494 0 0 1-4.324 0.576zM422.656 812.142a16.67 16.67 0 0 1-16.084-12.354 16.664 16.664 0 0 1 11.782-20.41l81.884-21.94c8.894-2.39 18.028 2.892 20.41 11.782a16.664 16.664 0 0 1-11.782 20.41l-81.886 21.94a16.658 16.658 0 0 1-4.324 0.572zM637.824 883.71a16.67 16.67 0 0 1-4.302-32.766l81.884-21.942c8.89-2.39 18.026 2.892 20.41 11.782a16.664 16.664 0 0 1-11.782 20.41l-81.884 21.942a16.6 16.6 0 0 1-4.326 0.574zM621.67 823.428a16.666 16.666 0 0 1-16.084-12.354 16.664 16.664 0 0 1 11.782-20.41l81.886-21.94c8.892-2.392 18.028 2.892 20.41 11.782a16.664 16.664 0 0 1-11.782 20.41l-81.886 21.94a16.77 16.77 0 0 1-4.326 0.572zM605.518 763.144a16.67 16.67 0 0 1-4.302-32.766l81.884-21.94c8.892-2.392 18.028 2.892 20.41 11.782a16.664 16.664 0 0 1-11.782 20.41l-81.884 21.94a16.59 16.59 0 0 1-4.326 0.574z"
    fill="#394049" p-id="8507"></path>
  <path
    d="M317.94 400.606h-55.806a16.66 16.66 0 0 1-16.664-16.664 16.66 16.66 0 0 1 16.664-16.664h55.806a16.66 16.66 0 0 1 16.664 16.664 16.664 16.664 0 0 1-16.664 16.664zM707.924 400.606h-55.806a16.66 16.66 0 0 1-16.664-16.664 16.66 16.66 0 0 1 16.664-16.664h55.806a16.664 16.664 0 0 1 16.664 16.664 16.664 16.664 0 0 1-16.664 16.664z"
    fill="#F0B0B7" p-id="8508"></path>
  <path
    d="M459 778.508c-1.18-4.734-5.86-8.506-11.596-7.198l-20.326 4.63-0.862 0.196-42.358 9.652-9.142 5.424c-52.788-17.98-95.122-49.16-125.812-92.806-16.528-23.504-27.05-47.208-32.968-66.698H120.62c7.364 39.126 26.2 82.586 52.502 119.988 27.782 39.506 63.47 72.152 105.156 96.712l-121.982 72.344a15.298 15.298 0 0 0-5.354 20.964l14.168 23.892a15.298 15.298 0 0 0 20.964 5.354l156.544-92.842c2.582 0.9 5.146 1.83 7.758 2.678a46.284 46.284 0 0 0 14.28 2.264c19.542 0 37.714-12.466 44.06-32.062a46.274 46.274 0 0 0 2.242-13.414l2.678-1.588 28.782-32.542 14.396-16.276c2.34-2.644 2.892-5.832 2.186-8.672z"
    opacity=".2" p-id="8509"></path>
  <path
    d="M472.284 704.194l-56.386 15.108L347.42 463.74a15.3 15.3 0 0 1 10.818-18.736l26.828-7.19a15.306 15.306 0 0 1 18.74 10.818l68.478 255.562z"
    fill="#394049" p-id="8510"></path>
  <path d="M451.24 774.062l-35.338-54.76 56.386-15.108-3.224 65.092c-0.468 9.404-12.72 12.688-17.824 4.776z"
    fill="#F1A21E" p-id="8511"></path>
  <path d="M439.456 755.806l11.782 18.256c5.106 7.912 17.358 4.63 17.824-4.776l1.076-21.7-30.682 8.22z" fill="#394049"
    p-id="8512"></path>
  <path d="M362.984 521.756l-8.628-32.192 56.378-15.112 8.628 32.192z" fill="#5F666F" p-id="8513"></path>
  <path
    d="M403.808 448.632a15.3 15.3 0 0 0-18.736-10.818l-3.078 0.824a54.066 54.066 0 0 0-11.74 33.708c0 30 24.32 54.32 54.32 54.32l0.144-0.002-20.91-78.032z"
    fill="#FFFFFF" opacity=".1" p-id="8514"></path>
  <path
    d="M422.37 677.358l-0.682-0.004c-69.28-1.004-132.19-15.142-181.936-40.89-58.972-30.528-100.226-77.634-119.3-136.23-7.918-24.324 5.382-50.464 29.708-58.384 24.332-7.912 50.464 5.386 58.384 29.708 32.488 99.806 160.818 112.388 214.482 113.164 25.58 0.372 46.018 21.408 45.648 46.988-0.366 25.35-21.034 45.648-46.304 45.648zM830.148 727.57c-3.302 0-6.65-0.354-10.008-1.094-24.984-5.502-40.778-30.214-35.278-55.2 5.044-22.9 0.314-45.632-14.464-69.494-13.468-21.75-6.756-50.3 14.996-63.77 21.748-13.46 50.298-6.758 63.77 14.996 27.706 44.744 36.514 91.238 26.176 138.19-4.762 21.628-23.924 36.372-45.192 36.372z"
    fill="#F3C74F" p-id="8515"></path>
</svg>